# xmcd
#
# Track frame offsets:
# 150
# 15230
# 28015
# 40782
# 59537
# 72630
# 85767
# 98607
# 112092
# 125145
# 137537
# 152710
#
# Disc length: 2216 seconds
#
#
# Revision: 0
# Processed by: cddbd v1.5.1PL2 Copyright (c) Steve Scherf et al.
# Submitted via: FreeRIP 2.944 
#
DISCID=9d08a60c
DTITLE=Pedro Bento e Zé da Estrada - Sempre Romântico
DYEAR=1900
DGENRE=Sertanejo
TTITLE0=Leid Dane
TTITLE1=Quem é esse homem
TTITLE2=Amor e loucura
TTITLE3=Minha boiada meu carro de boi
TTITLE4=Menina das pernas grossas
TTITLE5=Chinelo de banho
TTITLE6=Sonhos
TTITLE7=Apenas uma flor
TTITLE8=Minha fraqueza
TTITLE9=Amor gostoso
TTITLE10=Telha
TTITLE11=Você marcou demais
EXTD=
EXTT0=
EXTT1=
EXTT2=
EXTT3=
EXTT4=
EXTT5=
EXTT6=
EXTT7=
EXTT8=
EXTT9=
EXTT10=
EXTT11=
PLAYORDER=
